<svg xmlns="http://www.w3.org/2000/svg" viewBox="0 0 285 125"><linearGradient id="a" gradientUnits="userSpaceOnUse" x1=".575" y1="63.9" x2="284.1" y2="63.9" gradientTransform="matrix(1 0 0 -1 0 126)"><stop offset="0" stop-color="#66cc3c"/><stop offset="1" stop-color="#cce800"/></linearGradient><path d="M25.2 124.2c-8.2 0-15.3-3.1-19.8-8.6-4.3-5.3-5.8-12.4-4.2-19.9l16.1-75.3C19.5 10.3 29 0 43.2 0h185.3c10.6 0 19.4 4.2 24.9 11.9L278.5 47c1.8 2.3 5.6 7.8 5.6 14.8s-3.2 11.5-5.7 15.1l-25.7 36.5c-4.8 6.9-13.3 10.8-23.3 10.8H25.2z" fill="url(#a)"/><linearGradient id="b" gradientUnits="userSpaceOnUse" x1="7.792" y1="63.9" x2="276.9" y2="63.9" gradientTransform="matrix(1 0 0 -1 0 126)"><stop offset=".016" stop-color="#f6b123"/><stop offset="1" stop-color="#f46f21"/></linearGradient><path d="M25.2 117c-6 0-11.1-2.1-14.2-5.9-2.1-2.5-4.2-7-2.7-13.9l16.1-75.3C26 14.6 33 7.2 43.3 7.2h185.3c10.5 0 16.2 4.8 19.1 8.9l25.1 35.2c1.1 1.3 4.1 5.5 4.1 10.4 0 4.7-2.1 7.8-4.4 11l-25.7 36.5c-3.5 4.9-9.8 7.8-17.4 7.8H25.2z" fill="url(#b)"/><path d="M31.5 23.4c.7-3.4 4.5-9 11.7-9h185.3c3.9 0 9.5.8 13.2 5.9l25.4 35.4s2.6 3 2.6 6c0 2.5-1.2 4.2-3.3 7.1-2.1 2.9-25.5 36.2-25.5 36.2-2.2 3.1-6.5 4.7-11.5 4.7H25.2c-6.4 0-11.5-3.3-9.8-11.1l16.1-75.2z" fill="#fff"/><path d="M261.4 62.3c0 3.5-2.9 6.4-6.4 6.4s-6.4-2.9-6.4-6.4 2.9-6.4 6.4-6.4c3.6 0 6.4 2.9 6.4 6.4zM157.5 98.5c0-1.1.8-2 2-2 1 0 1.7.7 1.7 1.7 0 1.2-.8 2-2 2-1 0-1.7-.7-1.7-1.7zm49.1 0c0-1.1.8-2 2-2 1 0 1.7.7 1.7 1.7 0 1.2-.8 2-2 2-1.1 0-1.7-.7-1.7-1.7zM100.8 82.4c0-1.5.2-3.1.8-5.7-2.4 2.7-6.4 6.7-14.7 6.7-9.9 0-13.1-5.5-11.6-12.7 2.3-11.1 13.5-15.1 30.7-14.4 1-4.4 1.3-8.4-3.3-8.4-2.8 0-5.8 1.5-6.7 6.1H81.5c.5-1.9 1.2-5.3 4.9-8.5 3.8-3.2 10.5-5.1 17.9-5.1 3.6 0 11.3.5 14.7 4.7 2.1 2.5 2.2 6.3 1.3 10.7l-4 18.9c-.6 2.9-.7 3.6-.8 7.7h-14.7zm-10.3-13c-.6 3 .8 5.5 4.4 5.5 1.6 0 4.6-.6 6.8-3.9 1.8-2.6 2.5-5.9 2.7-7.6-6.4.1-12.7.1-13.9 6zM61.4 56.1c.8-3.8 0-6.9-3.9-6.9-5.6 0-8.1 5.7-9.6 12.8-2.2 10.5.2 12.9 4 12.9 5.2 0 6.6-5.2 7.2-8.2h15.3c-2.1 10.2-11.7 16.8-24 16.8-12.9 0-21.3-6.9-18.2-21.5C35.6 46 48 40.6 59.3 40.6c4.4 0 11.5.7 15.1 5.8 2.7 3.7 2.2 7.4 1.9 9.8l-14.9-.1zm120.3 0c.8-3.8 0-6.9-3.9-6.9-5.6 0-8.1 5.7-9.6 12.8-2.2 10.5.2 12.9 4 12.9 5.2 0 6.6-5.2 7.2-8.2h15.3c-2.1 10.2-11.7 16.8-24 16.8-12.9 0-21.3-6.9-18.2-21.5 3.4-16 15.8-21.4 27.1-21.4 4.4 0 11.5.7 15.1 5.8 2.7 3.7 2.2 7.4 1.9 9.8l-14.9-.1zM170 93.3c.2-1 0-1.8-1-1.8-1.4 0-2 1.4-2.4 3.2-.6 2.6 0 3.3 1 3.3 1.3 0 1.7-1.3 1.8-2.1h3.9c-.5 2.6-3 4.2-6 4.2-3.3 0-5.4-1.7-4.6-5.4.9-4 4-5.4 6.8-5.4 1.1 0 2.9.2 3.8 1.5.7.9.6 1.9.5 2.5H170zm11.7-3.9c3.3 0 5.5 1.7 4.8 5.3-.3 1.5-1.1 3-2.3 4.1-1 .8-2.4 1.5-4.5 1.5-2.3 0-3.6-.5-4.4-1.5-.9-1.1-.9-2.6-.6-3.9.5-3.2 3-5.5 7-5.5zm-3.2 7.8c.3.8 1 .8 1.3.8 1.7 0 2.4-1.8 2.7-3.2.4-1.8.3-3.3-1.3-3.3-1.7 0-2.4 1.7-2.7 3.3-.1.7-.2 1.7 0 2.4zm9.9-5.1c.1-.2.3-2 .4-2.3h3.8l-.3 1.7c1-1.3 2.3-1.9 3.9-1.9.6 0 2.5.1 2.8 1.9 1.3-1.6 3-1.9 4-1.9 1.9 0 2.6 1 2.9 1.6.4.9.1 2.1-.2 3.3l-1.2 5.6h-3.8l1.2-5.8c.2-1 .5-2.3-1-2.3-.5 0-1.1.2-1.6.9-.2.2-.3.6-.5 1.4l-1.2 5.7h-3.8l1.2-5.8c.2-.9.5-2.2-1.1-2.2-1.3 0-1.9 1.1-2.1 2.2l-1.2 5.8h-3.8l1.6-7.9zm30 7.9c0-.3.1-.8.2-1.4-.6.7-1.6 1.7-3.7 1.7-2.5 0-3.3-1.4-2.9-3.2.6-2.8 3.4-3.8 7.8-3.6.3-1.1.3-2.1-.8-2.1-.7 0-1.5.4-1.7 1.5h-3.7c.1-.5.3-1.3 1.2-2.1 1-.8 2.7-1.3 4.5-1.3.9 0 2.8.1 3.7 1.2.5.6.6 1.6.3 2.7l-1 4.8c-.2.7-.2.9-.2 1.9l-3.7-.1zm-2.6-3.3c-.2.8.2 1.4 1.1 1.4.4 0 1.2-.2 1.7-1 .4-.7.6-1.5.7-1.9-1.6 0-3.2 0-3.5 1.5zm13.8-7l-1.3 6c-.1.6-.4 2 1.1 2 1.6 0 1.9-1.5 2-2l1.3-5.9h3.8l-1.8 8.4c-.1.9-.2 1-.3 1.8h-3.8l.3-1.6c-1.4 1.6-2.7 1.8-3.6 1.8-3.5 0-3.2-2.7-2.8-4.7l1.2-5.8h3.9zm-80.5-58.3l-15.2 3-1.6 7.7h-7.9l-2.1 9.7h7.7l-4.3 19.8c-1.7 7.8-.1 11.9 12 11.9 5.2 0 7.9-.4 10-.7l2-9.5c-1.9.2-2.6.2-3.8.2-5.8 0-5.2-2.6-4.2-7.6l3-14h9.8l2.1-9.7H147l2.1-10.8zm93 13.3c-2.7-3.1-6.5-4.1-10.4-4.1-7.3 0-11.8 3.7-13.8 5.3l4.6-21.7h-15.4l-12.4 58.3h15.2l4-18.8c.7-3.4 1.3-6 2.1-7.8.7-1.6 2.7-5.7 7.6-5.7 6.3 0 4.9 6.6 4.2 10l-4.7 22.3h15.1l5.1-24c1.1-5.8 2-10.2-1.2-13.8z" fill="#000096"/></svg>
